<svg version="1.1" id="Layer_1" xmlns="http://www.w3.org/2000/svg" xmlns:xlink="http://www.w3.org/1999/xlink" x="0px" y="0px"
	 width="100%" viewBox="0 0 500 500" enable-background="new 0 0 500 500" xml:space="preserve">
<path fill="#000000" opacity="1.000000" stroke="none" 
	d="
M303.000000,501.000000 
	C202.000031,501.000000 101.500046,501.000000 1.000054,501.000000 
	C1.000036,334.333405 1.000036,167.666794 1.000018,1.000143 
	C167.666565,1.000096 334.333130,1.000096 500.999756,1.000048 
	C500.999847,167.666519 500.999847,334.333038 500.999939,500.999786 
	C435.166656,501.000000 369.333344,501.000000 303.000000,501.000000 
M56.917526,242.714935 
	C56.917572,267.515411 57.013897,292.316650 56.828606,317.115723 
	C56.795387,321.561401 57.802624,323.240692 62.621571,323.121124 
	C76.095436,322.786713 89.583099,323.031067 103.065063,322.979492 
	C105.377563,322.970642 107.768784,322.946808 109.986900,322.387543 
	C120.224655,319.806396 126.981964,313.424194 129.287918,303.057373 
	C131.436340,293.398773 127.962395,285.234924 120.690208,278.977081 
	C117.288857,276.050140 117.059029,274.103149 119.418533,270.367096 
	C121.368362,267.279724 122.620491,263.317780 122.854240,259.658569 
	C123.691971,246.544037 113.219315,236.574020 98.604729,236.344437 
	C86.457130,236.153595 74.301537,236.449112 62.155010,236.227005 
	C57.906322,236.149307 56.345524,237.729477 56.917526,242.714935 
M265.138428,135.493256 
	C265.138428,130.666336 264.932251,125.826019 265.244751,121.019417 
	C265.361969,119.216270 266.375153,116.261650 267.519073,115.973671 
	C270.357269,115.259132 273.732361,114.609329 275.455383,118.747604 
	C277.685211,124.103188 280.341309,129.285034 282.905090,134.496811 
	C285.388062,139.544312 286.778473,146.545883 290.864716,149.000870 
	C295.193298,151.601471 302.133148,149.855789 307.932526,150.007629 
	C308.098877,150.011993 308.266174,149.997330 308.431732,150.009354 
	C312.743164,150.322266 313.291016,148.419708 311.601654,144.898972 
	C307.151031,135.623627 302.866730,126.267876 298.354828,117.022888 
	C296.988312,114.222878 297.050385,112.449066 299.750275,110.300659 
	C309.506805,102.536964 312.638672,91.609955 308.725494,80.498581 
	C305.038208,70.028633 295.315033,63.418949 283.149445,63.320011 
	C271.498962,63.225269 259.843231,63.473019 248.197861,63.211605 
	C243.610657,63.108627 242.138641,64.601273 242.175690,69.216171 
	C242.366806,93.016449 242.266098,116.819084 242.263580,140.620895 
	C242.262421,151.554245 241.677124,149.952377 251.583679,149.994019 
	C265.138245,150.051010 265.138428,150.008270 265.138428,135.493256 
M281.414337,271.166229 
	C281.188477,273.820038 280.803894,276.471252 280.761200,279.128021 
	C280.316406,306.807770 304.641052,328.709290 331.396576,324.768982 
	C354.190704,321.412079 370.543915,301.563263 369.947754,277.977203 
	C369.371277,255.170227 351.756989,236.681702 328.435059,234.404282 
	C306.965027,232.307678 286.656311,247.903717 281.414337,271.166229 
M458.813293,279.500092 
	C458.813293,267.001343 458.613281,254.497787 458.912994,242.006241 
	C459.030914,237.090149 456.959351,236.181564 452.654053,236.178787 
	C448.392426,236.176056 446.239227,236.951248 446.357361,241.931274 
	C446.661652,254.756088 446.485718,267.593109 446.429199,280.424927 
	C446.420166,282.479797 446.037354,284.533020 445.827362,286.587006 
	C443.421875,285.284241 442.047760,283.727997 440.986816,281.981476 
	C434.942139,272.030487 427.921539,262.499512 423.242096,251.935638 
	C417.362518,238.662354 408.486542,233.784500 394.483459,236.125916 
	C390.616211,236.772522 388.967773,237.443085 388.995087,241.678177 
	C389.158569,267.007965 389.186798,292.340240 388.977295,317.669342 
	C388.938385,322.374664 390.811127,323.247192 394.907196,323.102600 
	C398.702301,322.968628 401.538483,323.224274 401.400940,317.762543 
	C401.031830,303.106628 401.242096,288.435120 401.313477,273.770233 
	C401.323944,271.618591 401.831696,269.469391 402.109375,267.319061 
	C404.584839,268.862274 405.926453,270.503815 407.014404,272.299103 
	C414.513519,284.674133 422.812805,296.662811 429.161255,309.606354 
	C434.534546,320.561676 441.636810,324.984436 453.631439,323.219818 
	C457.853149,322.598724 458.928894,321.410065 458.875122,317.495605 
	C458.705780,305.165802 458.813110,292.832245 458.813293,279.500092 
M189.267319,140.013245 
	C179.947723,140.283173 171.255936,138.446899 164.696274,131.300186 
	C160.348068,126.562820 157.835419,131.059113 155.131088,132.925232 
	C151.378555,135.514664 154.948349,137.590332 156.470032,139.283081 
	C168.777390,152.974014 193.146896,156.340469 209.330170,146.724640 
	C228.499619,135.334488 228.953506,114.039520 210.040863,102.174240 
	C204.307571,98.577324 197.891815,96.077728 191.839035,92.977127 
	C187.861313,90.939484 183.646851,89.142769 180.177277,86.423119 
	C178.306503,84.956718 176.671661,81.618507 176.983429,79.415329 
	C177.252625,77.512932 180.181976,75.068237 182.356659,74.512802 
	C191.901337,72.074982 201.161560,72.646545 209.341568,79.067719 
	C213.326614,82.195938 214.611496,81.590263 219.366226,75.465698 
	C222.325790,71.653496 218.976562,70.330338 216.818390,69.009468 
	C200.403198,58.962875 183.414307,58.155769 166.736176,67.764511 
	C149.145248,77.899139 148.864105,97.658508 165.635101,109.091484 
	C167.687012,110.490295 169.859055,111.743011 172.076523,112.863350 
	C179.334091,116.530098 186.745407,119.907684 193.882523,123.791718 
	C197.848755,125.950150 201.978943,128.942200 200.713608,134.248199 
	C199.470093,139.462753 194.431793,139.421112 189.267319,140.013245 
M211.425674,323.008087 
	C212.756882,323.008057 214.088364,323.025848 215.419235,323.004761 
	C220.403992,322.925812 220.896393,322.270569 219.193298,317.379700 
	C210.300674,291.842224 201.420578,266.299957 192.338379,240.829880 
	C191.697784,239.033356 189.471573,236.548035 187.971420,236.540222 
	C182.851761,236.513550 177.722931,237.420532 172.614029,238.095566 
	C172.291962,238.138123 172.085098,239.234497 171.867004,239.855484 
	C162.686737,265.994812 153.489929,292.128418 144.403534,318.300354 
	C143.984299,319.507874 144.022171,321.580078 144.772156,322.359131 
	C147.321625,325.007568 155.964722,322.529449 157.191406,318.978607 
	C158.816772,314.273712 160.534454,309.590698 161.894699,304.807892 
	C162.762772,301.755646 164.299637,300.400085 167.541473,300.569336 
	C171.524384,300.777313 175.526917,300.578949 179.520157,300.625061 
	C191.572876,300.764252 188.706512,299.189026 192.379761,309.878113 
	C196.881836,322.979126 196.797516,323.008087 211.425674,323.008087 
M251.214111,330.687683 
	C254.157150,323.898346 259.200897,317.247681 259.659943,310.294373 
	C261.203400,286.913910 261.177155,263.426483 261.468658,239.976456 
	C261.483704,238.767395 258.976746,236.649689 257.462341,236.467880 
	C253.357941,235.975067 249.126923,236.604599 244.999512,236.218323 
	C239.891479,235.740311 238.509384,237.650665 238.525513,242.696564 
	C238.596313,264.840668 238.517731,286.993652 237.921249,309.128021 
	C237.605667,320.838409 234.159073,331.502594 222.951874,337.779083 
	C220.136398,339.355835 220.625900,341.289307 221.828125,343.644775 
	C222.993835,345.928589 223.981567,347.479309 227.132492,346.358704 
	C236.211960,343.129486 244.498169,338.792938 251.214111,330.687683 
M168.578354,400.991333 
	C168.891815,400.046875 169.205276,399.102386 169.518753,398.157928 
	C169.955093,398.583710 170.391418,399.009521 170.827759,399.435303 
	C170.942032,400.858337 171.056290,402.281403 171.172272,403.725891 
	C173.834579,403.725891 176.243652,403.725891 178.931595,403.725891 
	C178.931595,395.828064 179.107452,388.202362 178.777023,380.598633 
	C178.714096,379.150330 176.885864,377.212830 175.417404,376.611542 
	C174.584793,376.270630 172.325287,377.891815 171.591125,379.146027 
	C169.997559,381.868469 168.970718,384.922638 167.364105,388.648346 
	C166.295746,384.980713 165.998703,381.972321 164.556061,379.687134 
	C163.544922,378.085480 161.052444,377.204071 159.041718,376.586426 
	C158.478516,376.413422 156.515610,378.295074 156.490036,379.268188 
	C156.278000,387.341949 156.369904,395.423676 156.369904,403.595520 
	C157.962769,403.595520 160.168320,403.595520 162.466446,403.595520 
	C162.709641,401.524292 162.905746,399.854126 163.011627,398.952332 
	C164.725662,399.794922 166.331467,400.584290 168.578354,400.991333 
M336.208496,129.537003 
	C335.381378,130.353241 334.440063,131.083130 333.746277,132.000244 
	C330.187622,136.704666 330.220917,142.700333 333.755219,147.265976 
	C337.240723,151.768585 343.331818,153.340866 348.560547,151.087601 
	C353.985260,148.749847 357.033997,143.121811 355.913818,137.225235 
	C354.305664,128.759827 344.351227,124.091789 336.208496,129.537003 
M401.822449,382.655212 
	C401.822449,380.710022 401.822449,378.764801 401.822449,376.475311 
	C399.788849,376.384583 398.023712,376.305817 395.812439,376.207184 
	C395.492462,379.433136 395.203186,382.349396 394.804993,386.363647 
	C393.488312,383.197784 392.983368,380.622284 391.505737,378.864319 
	C390.336731,377.473480 388.034943,376.795288 386.111938,376.389740 
	C385.285126,376.215302 383.332214,377.460419 383.269501,378.180664 
	C382.527313,386.703522 382.046112,395.249115 381.505859,403.640472 
	C384.381866,403.640472 386.444214,403.640472 388.989197,403.640472 
	C388.989197,399.430054 388.989197,395.590210 388.989197,391.750366 
	C390.719971,394.073578 391.942993,396.420380 392.548798,398.916962 
	C393.686584,403.605957 396.304718,405.100861 401.753845,403.139191 
	C401.753845,396.873901 401.753845,390.246399 401.822449,382.655212 
M189.842850,393.436096 
	C192.554474,392.998657 195.266083,392.561218 198.240875,392.081329 
	C198.012314,389.986786 197.841949,388.425385 197.643860,386.610016 
	C194.554337,386.610016 191.831879,386.610016 188.349960,386.610016 
	C191.535522,380.979065 197.386673,384.705750 200.860214,381.811462 
	C200.860214,380.115143 200.860214,378.335083 200.860214,375.960938 
	C194.777740,376.294983 188.917892,376.616791 182.679703,376.959381 
	C182.258240,386.234100 181.861206,394.971466 181.442795,404.178864 
	C188.034821,403.784607 193.918259,403.432709 199.783463,403.081909 
	C199.783463,400.644928 199.783463,398.731567 199.783463,396.690521 
	C196.876572,396.690521 194.213715,396.922943 191.631424,396.568359 
	C190.688171,396.438812 189.936417,394.914551 189.842850,393.436096 
M264.298492,378.309479 
	C259.044891,373.982422 253.582916,377.591736 247.984833,377.092834 
	C247.381165,386.408783 246.827942,394.946442 246.272919,403.511719 
	C248.872345,403.511719 250.762192,403.511719 252.626602,403.511719 
	C252.952820,400.545380 253.238846,397.944458 253.524872,395.343536 
	C253.986374,395.260895 254.447891,395.178253 254.909409,395.095612 
	C256.727234,398.086670 258.545074,401.077728 260.473907,404.251373 
	C262.427399,402.898621 264.140228,401.712555 265.874847,400.511353 
	C264.397858,397.584656 263.139587,395.091339 261.917389,392.669525 
	C265.962494,388.562744 267.419830,384.154694 264.298492,378.309479 
M120.065727,391.501678 
	C120.057213,392.500793 120.027191,393.500305 120.043655,394.498993 
	C120.149734,400.935333 121.877876,403.460968 126.510033,403.973053 
	C133.035675,404.694458 137.996384,401.737457 138.789825,395.813843 
	C139.619202,389.622101 139.604858,383.317322 139.973846,376.805786 
	C137.330139,376.805786 135.310944,376.805786 133.293808,376.805786 
	C132.925217,382.214294 132.812180,387.222992 132.125732,392.151825 
	C131.881180,393.907715 130.245880,395.469910 129.245422,397.120514 
	C128.502274,395.385712 127.129448,393.648956 127.134888,391.916504 
	C127.150757,386.865540 127.717461,381.816284 128.055634,376.947510 
	C122.924431,375.411102 120.866081,376.765625 121.052567,381.651855 
	C121.165367,384.607544 120.442680,387.595062 120.065727,391.501678 
M329.846405,218.344864 
	C333.968536,214.405167 338.090698,210.465469 342.449585,206.299484 
	C334.730804,202.125519 325.594666,203.860992 321.375183,209.577423 
	C316.783386,215.798279 312.221039,222.040817 307.100525,229.016830 
	C312.335144,230.368469 316.268829,231.437347 319.933960,227.749634 
	C322.977173,224.687668 326.196930,221.801086 329.846405,218.344864 
M378.026550,381.716827 
	C376.712158,377.805634 373.898560,374.987000 369.925507,375.984467 
	C366.967957,376.726959 363.436859,379.074707 362.159515,381.685333 
	C360.356750,385.369659 360.016663,389.933075 359.753326,394.164337 
	C359.450470,399.030640 362.722687,403.155304 366.639435,403.912292 
	C371.232544,404.799927 376.006012,402.217834 377.214447,396.972473 
	C378.286896,392.317566 377.941040,387.335938 378.026550,381.716827 
M286.939972,378.465302 
	C282.951263,382.911865 282.750336,388.437164 282.687225,393.933014 
	C282.621277,399.674225 286.108032,403.794617 290.918610,404.003143 
	C296.018768,404.224182 300.552399,399.841949 301.031647,394.329193 
	C301.213379,392.238892 301.774017,390.173309 301.856476,388.084412 
	C302.025085,383.811615 301.504059,379.576996 297.551208,377.032745 
	C294.135345,374.834167 290.601379,375.190887 286.939972,378.465302 
M225.484680,385.288513 
	C225.209915,388.085083 224.759598,390.877747 224.696609,393.679077 
	C224.561981,399.666168 228.131729,403.912720 233.147812,404.008026 
	C238.232040,404.104675 242.638382,399.641235 243.044785,394.115875 
	C243.198441,392.027191 243.571564,389.950867 243.915787,387.880707 
	C244.735840,382.949036 241.715561,377.223114 237.629959,376.039185 
	C232.983612,374.692749 229.172943,376.802887 226.592560,382.191956 
	C226.237717,382.933014 226.035828,383.747345 225.484680,385.288513 
M347.046753,381.993774 
	C344.502777,375.593567 337.716248,373.867645 332.759521,378.536591 
	C327.919403,383.095764 326.318451,388.949158 327.269012,395.381927 
	C327.850067,399.313904 329.607300,402.826294 333.966248,403.800659 
	C338.350464,404.780731 341.649323,402.798340 344.362396,399.430817 
	C346.807892,396.395477 346.551392,394.250549 342.744751,392.739868 
	C341.591492,394.237793 340.800690,395.855682 339.507935,396.739014 
	C338.626465,397.341339 336.462402,397.473938 335.871826,396.857880 
	C332.867371,393.723907 335.674500,383.888916 340.207916,382.130310 
	C340.051270,384.036621 339.908569,385.773743 339.757355,387.613892 
	C342.231354,387.613892 344.425476,387.613892 346.847565,387.613892 
	C346.956787,385.784027 347.044647,384.311768 347.046753,381.993774 
M305.015167,392.503540 
	C305.015167,396.259552 305.015167,400.015564 305.015167,403.835266 
	C307.176178,403.835266 308.949646,403.835266 310.930237,403.835266 
	C311.128784,401.254578 311.315125,398.832947 311.496429,396.476624 
	C322.206116,393.453430 325.852905,389.086853 323.778168,381.931702 
	C322.008240,375.827942 316.640228,374.838318 305.667511,378.749969 
	C305.461639,382.926361 305.249908,387.221924 305.015167,392.503540 
M115.029045,376.110779 
	C109.442635,376.110779 103.856216,376.110779 98.142853,376.110779 
	C98.142853,379.409149 98.142853,381.645874 98.142853,384.204071 
	C100.174583,384.010803 101.919846,383.844757 103.921860,383.654327 
	C103.921860,390.421814 103.921860,396.995880 103.921860,403.782104 
	C106.191872,403.782104 108.249001,403.782104 110.543686,403.782104 
	C110.881462,396.704529 111.208748,389.846832 111.530968,383.095154 
	C113.828972,382.709503 115.586349,382.414581 118.606575,381.907745 
	C117.560104,379.651215 116.740387,377.883636 115.029045,376.110779 
M215.114517,378.853149 
	C214.164398,384.963959 217.205383,391.826050 213.232895,396.367432 
	C209.485275,395.206909 206.952408,394.422516 204.419540,393.638153 
	C203.889374,394.229706 203.359207,394.821259 202.829041,395.412781 
	C204.394943,397.979370 205.420227,401.840942 207.666168,402.778564 
	C210.360123,403.903229 214.908569,403.620270 217.150070,401.940338 
	C219.390701,400.260956 219.868484,396.135223 220.901825,393.010040 
	C221.140808,392.287231 219.999939,390.844299 220.333893,390.457092 
	C224.226303,385.944183 221.292023,381.004883 222.372101,374.803802 
	C219.077972,376.225098 217.104980,377.076355 215.114517,378.853149 
M351.320892,379.444519 
	C350.705933,387.587280 350.091003,395.730042 349.485809,403.743500 
	C352.735504,403.743500 354.831573,403.743500 356.410797,403.743500 
	C357.054901,394.367767 357.677307,385.308411 358.373108,375.180176 
	C355.632996,377.284790 351.807312,373.437500 351.320892,379.444519 
z"/>
<path fill="#FCFCFC" opacity="1.000000" stroke="none" 
	d="
M56.917549,242.243134 
	C56.345524,237.729477 57.906322,236.149307 62.155010,236.227005 
	C74.301537,236.449112 86.457130,236.153595 98.604729,236.344437 
	C113.219315,236.574020 123.691971,246.544037 122.854240,259.658569 
	C122.620491,263.317780 121.368362,267.279724 119.418533,270.367096 
	C117.059029,274.103149 117.288857,276.050140 120.690208,278.977081 
	C127.962395,285.234924 131.436340,293.398773 129.287918,303.057373 
	C126.981964,313.424194 120.224655,319.806396 109.986900,322.387543 
	C107.768784,322.946808 105.377563,322.970642 103.065063,322.979492 
	C89.583099,323.031067 76.095436,322.786713 62.621571,323.121124 
	C57.802624,323.240692 56.795387,321.561401 56.828606,317.115723 
	C57.013897,292.316650 56.917572,267.515411 56.917549,242.243134 
M79.881386,306.280975 
	C79.221527,310.617798 80.983559,312.421814 85.417252,311.951874 
	C88.048378,311.672943 90.733284,311.910919 93.393929,311.898926 
	C99.294106,311.872345 102.288101,310.181824 103.449722,304.444580 
	C104.343086,300.032288 104.396172,295.179962 103.572090,290.756348 
	C102.477386,284.880096 99.332275,283.066193 93.189293,283.048859 
	C90.196045,283.040405 87.195778,283.176147 84.211342,283.013885 
	C81.000397,282.839325 79.735703,284.091339 79.832100,287.363220 
	C80.008347,293.344574 79.881676,299.334839 79.881386,306.280975 
M97.567123,262.868317 
	C97.450775,260.226135 97.604034,257.538269 97.165245,254.950775 
	C96.049461,248.371155 93.014587,246.737686 83.432495,247.834061 
	C82.137421,247.982239 80.127518,249.989883 80.045631,251.241043 
	C79.676918,256.874725 79.774017,262.549896 79.970436,268.200836 
	C80.012863,269.421600 80.873772,271.289093 81.844154,271.694611 
	C89.017838,274.692474 95.560394,271.200653 97.567123,262.868317 
z"/>
<path fill="#FAFAFA" opacity="1.000000" stroke="none" 
	d="
M265.138428,135.990601 
	C265.138428,150.008270 265.138245,150.051010 251.583679,149.994019 
	C241.677124,149.952377 242.262421,151.554245 242.263580,140.620895 
	C242.266098,116.819084 242.366806,93.016449 242.175690,69.216171 
	C242.138641,64.601273 243.610657,63.108627 248.197861,63.211605 
	C259.843231,63.473019 271.498962,63.225269 283.149445,63.320011 
	C295.315033,63.418949 305.038208,70.028633 308.725494,80.498581 
	C312.638672,91.609955 309.506805,102.536964 299.750275,110.300659 
	C297.050385,112.449066 296.988312,114.222878 298.354828,117.022888 
	C302.866730,126.267876 307.151031,135.623627 311.601654,144.898972 
	C313.291016,148.419708 312.743164,150.322266 308.431732,150.009354 
	C308.266174,149.997330 308.098877,150.011993 307.932526,150.007629 
	C302.133148,149.855789 295.193298,151.601471 290.864716,149.000870 
	C286.778473,146.545883 285.388062,139.544312 282.905090,134.496811 
	C280.341309,129.285034 277.685211,124.103188 275.455383,118.747604 
	C273.732361,114.609329 270.357269,115.259132 267.519073,115.973671 
	C266.375153,116.261650 265.361969,119.216270 265.244751,121.019417 
	C264.932251,125.826019 265.138428,130.666336 265.138428,135.990601 
M275.157104,104.241249 
	C277.092621,103.499527 279.479889,103.240005 280.880707,101.927574 
	C285.473145,97.624840 286.114990,87.410385 283.174957,80.281975 
	C280.329193,73.382187 274.557220,74.875267 269.219727,74.666489 
	C266.221680,74.549210 265.037415,75.810684 265.099060,78.783997 
	C265.212738,84.265617 265.120850,89.751328 265.131592,95.235298 
	C265.151703,105.482491 264.306519,104.158180 275.157104,104.241249 
z"/>
<path fill="#FCFCFC" opacity="1.000000" stroke="none" 
	d="
M281.535553,270.746887 
	C286.656311,247.903717 306.965027,232.307678 328.435059,234.404282 
	C351.756989,236.681702 369.371277,255.170227 369.947754,277.977203 
	C370.543915,301.563263 354.190704,321.412079 331.396576,324.768982 
	C304.641052,328.709290 280.316406,306.807770 280.761200,279.128021 
	C280.803894,276.471252 281.188477,273.820038 281.535553,270.746887 
M344.672546,278.640900 
	C344.144623,269.565399 342.576111,260.803284 336.888184,253.321304 
	C330.206696,244.532318 320.610352,244.470306 313.934479,253.148239 
	C303.371735,266.878693 303.318146,292.418427 313.823242,306.163483 
	C320.679016,315.133667 330.277802,315.005219 337.059143,305.884766 
	C342.893646,298.037720 344.275635,288.914276 344.672546,278.640900 
z"/>
<path fill="#FAFAFA" opacity="1.000000" stroke="none" 
	d="
M458.813293,280.000122 
	C458.813110,292.832245 458.705780,305.165802 458.875122,317.495605 
	C458.928894,321.410065 457.853149,322.598724 453.631439,323.219818 
	C441.636810,324.984436 434.534546,320.561676 429.161255,309.606354 
	C422.812805,296.662811 414.513519,284.674133 407.014404,272.299103 
	C405.926453,270.503815 404.584839,268.862274 402.109375,267.319061 
	C401.831696,269.469391 401.323944,271.618591 401.313477,273.770233 
	C401.242096,288.435120 401.031830,303.106628 401.400940,317.762543 
	C401.538483,323.224274 398.702301,322.968628 394.907196,323.102600 
	C390.811127,323.247192 388.938385,322.374664 388.977295,317.669342 
	C389.186798,292.340240 389.158569,267.007965 388.995087,241.678177 
	C388.967773,237.443085 390.616211,236.772522 394.483459,236.125916 
	C408.486542,233.784500 417.362518,238.662354 423.242096,251.935638 
	C427.921539,262.499512 434.942139,272.030487 440.986816,281.981476 
	C442.047760,283.727997 443.421875,285.284241 445.827362,286.587006 
	C446.037354,284.533020 446.420166,282.479797 446.429199,280.424927 
	C446.485718,267.593109 446.661652,254.756088 446.357361,241.931274 
	C446.239227,236.951248 448.392426,236.176056 452.654053,236.178787 
	C456.959351,236.181564 459.030914,237.090149 458.912994,242.006241 
	C458.613281,254.497787 458.813293,267.001343 458.813293,280.000122 
z"/>
<path fill="#FBFBFB" opacity="1.000000" stroke="none" 
	d="
M189.711548,140.004608 
	C194.431793,139.421112 199.470093,139.462753 200.713608,134.248199 
	C201.978943,128.942200 197.848755,125.950150 193.882523,123.791718 
	C186.745407,119.907684 179.334091,116.530098 172.076523,112.863350 
	C169.859055,111.743011 167.687012,110.490295 165.635101,109.091484 
	C148.864105,97.658508 149.145248,77.899139 166.736176,67.764511 
	C183.414307,58.155769 200.403198,58.962875 216.818390,69.009468 
	C218.976562,70.330338 222.325790,71.653496 219.366226,75.465698 
	C214.611496,81.590263 213.326614,82.195938 209.341568,79.067719 
	C201.161560,72.646545 191.901337,72.074982 182.356659,74.512802 
	C180.181976,75.068237 177.252625,77.512932 176.983429,79.415329 
	C176.671661,81.618507 178.306503,84.956718 180.177277,86.423119 
	C183.646851,89.142769 187.861313,90.939484 191.839035,92.977127 
	C197.891815,96.077728 204.307571,98.577324 210.040863,102.174240 
	C228.953506,114.039520 228.499619,135.334488 209.330170,146.724640 
	C193.146896,156.340469 168.777390,152.974014 156.470032,139.283081 
	C154.948349,137.590332 151.378555,135.514664 155.131088,132.925232 
	C157.835419,131.059113 160.348068,126.562820 164.696274,131.300186 
	C171.255936,138.446899 179.947723,140.283173 189.711548,140.004608 
z"/>
<path fill="#FAFAFA" opacity="1.000000" stroke="none" 
	d="
M210.939026,323.008087 
	C196.797516,323.008087 196.881836,322.979126 192.379761,309.878113 
	C188.706512,299.189026 191.572876,300.764252 179.520157,300.625061 
	C175.526917,300.578949 171.524384,300.777313 167.541473,300.569336 
	C164.299637,300.400085 162.762772,301.755646 161.894699,304.807892 
	C160.534454,309.590698 158.816772,314.273712 157.191406,318.978607 
	C155.964722,322.529449 147.321625,325.007568 144.772156,322.359131 
	C144.022171,321.580078 143.984299,319.507874 144.403534,318.300354 
	C153.489929,292.128418 162.686737,265.994812 171.867004,239.855484 
	C172.085098,239.234497 172.291962,238.138123 172.614029,238.095566 
	C177.722931,237.420532 182.851761,236.513550 187.971420,236.540222 
	C189.471573,236.548035 191.697784,239.033356 192.338379,240.829880 
	C201.420578,266.299957 210.300674,291.842224 219.193298,317.379700 
	C220.896393,322.270569 220.403992,322.925812 215.419235,323.004761 
	C214.088364,323.025848 212.756882,323.008057 210.939026,323.008087 
M174.437927,267.178589 
	C172.166306,274.165833 169.894699,281.153107 167.296158,289.145935 
	C173.172318,289.145935 177.919205,289.271851 182.643478,289.001923 
	C183.305756,288.964081 184.589691,286.767548 184.343399,285.940155 
	C182.460281,279.614349 180.321350,273.361969 178.141083,267.129028 
	C177.505569,265.312286 176.411179,264.016541 174.437927,267.178589 
z"/>
<path fill="#FAFAFA" opacity="1.000000" stroke="none" 
	d="
M251.009537,330.981354 
	C244.498169,338.792938 236.211960,343.129486 227.132492,346.358704 
	C223.981567,347.479309 222.993835,345.928589 221.828125,343.644775 
	C220.625900,341.289307 220.136398,339.355835 222.951874,337.779083 
	C234.159073,331.502594 237.605667,320.838409 237.921249,309.128021 
	C238.517731,286.993652 238.596313,264.840668 238.525513,242.696564 
	C238.509384,237.650665 239.891479,235.740311 244.999512,236.218323 
	C249.126923,236.604599 253.357941,235.975067 257.462341,236.467880 
	C258.976746,236.649689 261.483704,238.767395 261.468658,239.976456 
	C261.177155,263.426483 261.203400,286.913910 259.659943,310.294373 
	C259.200897,317.247681 254.157150,323.898346 251.009537,330.981354 
z"/>
<path fill="#F2F2F2" opacity="1.000000" stroke="none" 
	d="
M168.257812,401.182495 
	C166.331467,400.584290 164.725662,399.794922 163.011627,398.952332 
	C162.905746,399.854126 162.709641,401.524292 162.466446,403.595520 
	C160.168320,403.595520 157.962769,403.595520 156.369904,403.595520 
	C156.369904,395.423676 156.278000,387.341949 156.490036,379.268188 
	C156.515610,378.295074 158.478516,376.413422 159.041718,376.586426 
	C161.052444,377.204071 163.544922,378.085480 164.556061,379.687134 
	C165.998703,381.972321 166.295746,384.980713 167.364105,388.648346 
	C168.970718,384.922638 169.997559,381.868469 171.591125,379.146027 
	C172.325287,377.891815 174.584793,376.270630 175.417404,376.611542 
	C176.885864,377.212830 178.714096,379.150330 178.777023,380.598633 
	C179.107452,388.202362 178.931595,395.828064 178.931595,403.725891 
	C176.243652,403.725891 173.834579,403.725891 171.172272,403.725891 
	C171.056290,402.281403 170.942032,400.858337 170.827759,399.435303 
	C170.391418,399.009521 169.955093,398.583710 169.518753,398.157928 
	C169.205276,399.102386 168.891815,400.046875 168.257812,401.182495 
z"/>
<path fill="#FAFAFA" opacity="1.000000" stroke="none" 
	d="
M336.519928,129.319687 
	C344.351227,124.091789 354.305664,128.759827 355.913818,137.225235 
	C357.033997,143.121811 353.985260,148.749847 348.560547,151.087601 
	C343.331818,153.340866 337.240723,151.768585 333.755219,147.265976 
	C330.220917,142.700333 330.187622,136.704666 333.746277,132.000244 
	C334.440063,131.083130 335.381378,130.353241 336.519928,129.319687 
z"/>
<path fill="#F2F2F2" opacity="1.000000" stroke="none" 
	d="
M401.788147,383.137024 
	C401.753845,390.246399 401.753845,396.873901 401.753845,403.139191 
	C396.304718,405.100861 393.686584,403.605957 392.548798,398.916962 
	C391.942993,396.420380 390.719971,394.073578 388.989197,391.750366 
	C388.989197,395.590210 388.989197,399.430054 388.989197,403.640472 
	C386.444214,403.640472 384.381866,403.640472 381.505859,403.640472 
	C382.046112,395.249115 382.527313,386.703522 383.269501,378.180664 
	C383.332214,377.460419 385.285126,376.215302 386.111938,376.389740 
	C388.034943,376.795288 390.336731,377.473480 391.505737,378.864319 
	C392.983368,380.622284 393.488312,383.197784 394.804993,386.363647 
	C395.203186,382.349396 395.492462,379.433136 395.812439,376.207184 
	C398.023712,376.305817 399.788849,376.384583 401.822449,376.475311 
	C401.822449,378.764801 401.822449,380.710022 401.788147,383.137024 
z"/>
<path fill="#F4F4F4" opacity="1.000000" stroke="none" 
	d="
M189.470062,393.731323 
	C189.936417,394.914551 190.688171,396.438812 191.631424,396.568359 
	C194.213715,396.922943 196.876572,396.690521 199.783463,396.690521 
	C199.783463,398.731567 199.783463,400.644928 199.783463,403.081909 
	C193.918259,403.432709 188.034821,403.784607 181.442795,404.178864 
	C181.861206,394.971466 182.258240,386.234100 182.679703,376.959381 
	C188.917892,376.616791 194.777740,376.294983 200.860214,375.960938 
	C200.860214,378.335083 200.860214,380.115143 200.860214,381.811462 
	C197.386673,384.705750 191.535522,380.979065 188.349960,386.610016 
	C191.831879,386.610016 194.554337,386.610016 197.643860,386.610016 
	C197.841949,388.425385 198.012314,389.986786 198.240875,392.081329 
	C195.266083,392.561218 192.554474,392.998657 189.470062,393.731323 
z"/>
<path fill="#F1F1F1" opacity="1.000000" stroke="none" 
	d="
M264.555176,378.621704 
	C267.419830,384.154694 265.962494,388.562744 261.917389,392.669525 
	C263.139587,395.091339 264.397858,397.584656 265.874847,400.511353 
	C264.140228,401.712555 262.427399,402.898621 260.473907,404.251373 
	C258.545074,401.077728 256.727234,398.086670 254.909409,395.095612 
	C254.447891,395.178253 253.986374,395.260895 253.524872,395.343536 
	C253.238846,397.944458 252.952820,400.545380 252.626602,403.511719 
	C250.762192,403.511719 248.872345,403.511719 246.272919,403.511719 
	C246.827942,394.946442 247.381165,386.408783 247.984833,377.092834 
	C253.582916,377.591736 259.044891,373.982422 264.555176,378.621704 
M253.965927,384.044769 
	C253.903656,385.460571 253.841385,386.876404 253.779114,388.292206 
	C254.252197,388.566864 254.725281,388.841553 255.198364,389.116241 
	C256.691223,387.294708 258.184082,385.473175 259.676971,383.651642 
	C259.278320,383.227722 258.879669,382.803802 258.481018,382.379913 
	C257.078308,382.671021 255.675568,382.962128 253.965927,384.044769 
z"/>
<path fill="#F0F0F0" opacity="1.000000" stroke="none" 
	d="
M120.080551,391.034973 
	C120.442680,387.595062 121.165367,384.607544 121.052567,381.651855 
	C120.866081,376.765625 122.924431,375.411102 128.055634,376.947510 
	C127.717461,381.816284 127.150757,386.865540 127.134888,391.916504 
	C127.129448,393.648956 128.502274,395.385712 129.245422,397.120514 
	C130.245880,395.469910 131.881180,393.907715 132.125732,392.151825 
	C132.812180,387.222992 132.925217,382.214294 133.293808,376.805786 
	C135.310944,376.805786 137.330139,376.805786 139.973846,376.805786 
	C139.604858,383.317322 139.619202,389.622101 138.789825,395.813843 
	C137.996384,401.737457 133.035675,404.694458 126.510033,403.973053 
	C121.877876,403.460968 120.149734,400.935333 120.043655,394.498993 
	C120.027191,393.500305 120.057213,392.500793 120.080551,391.034973 
z"/>
<path fill="#F6F6F6" opacity="1.000000" stroke="none" 
	d="
M329.592468,218.590851 
	C326.196930,221.801086 322.977173,224.687668 319.933960,227.749634 
	C316.268829,231.437347 312.335144,230.368469 307.100525,229.016830 
	C312.221039,222.040817 316.783386,215.798279 321.375183,209.577423 
	C325.594666,203.860992 334.730804,202.125519 342.449585,206.299484 
	C338.090698,210.465469 333.968536,214.405167 329.592468,218.590851 
z"/>
<path fill="#F0F0F0" opacity="1.000000" stroke="none" 
	d="
M378.123901,382.107666 
	C377.941040,387.335938 378.286896,392.317566 377.214447,396.972473 
	C376.006012,402.217834 371.232544,404.799927 366.639435,403.912292 
	C362.722687,403.155304 359.450470,399.030640 359.753326,394.164337 
	C360.016663,389.933075 360.356750,385.369659 362.159515,381.685333 
	C363.436859,379.074707 366.967957,376.726959 369.925507,375.984467 
	C373.898560,374.987000 376.712158,377.805634 378.123901,382.107666 
M371.296722,382.204163 
	C370.197845,382.856964 368.315399,383.345367 368.137878,384.191467 
	C367.428192,387.573608 367.125244,391.060944 366.956177,394.523224 
	C366.912231,395.423309 367.898560,396.373688 368.411652,397.300995 
	C369.276917,396.463470 370.774536,395.708954 370.897247,394.774017 
	C371.409210,390.873138 371.507782,386.918030 371.296722,382.204163 
z"/>
<path fill="#F0F0F0" opacity="1.000000" stroke="none" 
	d="
M287.198914,378.206055 
	C290.601379,375.190887 294.135345,374.834167 297.551208,377.032745 
	C301.504059,379.576996 302.025085,383.811615 301.856476,388.084412 
	C301.774017,390.173309 301.213379,392.238892 301.031647,394.329193 
	C300.552399,399.841949 296.018768,404.224182 290.918610,404.003143 
	C286.108032,403.794617 282.621277,399.674225 282.687225,393.933014 
	C282.750336,388.437164 282.951263,382.911865 287.198914,378.206055 
M289.838989,392.465637 
	C290.076355,394.120056 290.313751,395.774475 290.606079,397.812042 
	C295.655548,394.385010 296.600372,385.619354 292.044678,380.451172 
	C291.200775,384.738708 290.529968,388.146942 289.838989,392.465637 
z"/>
<path fill="#F0F0F0" opacity="1.000000" stroke="none" 
	d="
M225.623901,384.908142 
	C226.035828,383.747345 226.237717,382.933014 226.592560,382.191956 
	C229.172943,376.802887 232.983612,374.692749 237.629959,376.039185 
	C241.715561,377.223114 244.735840,382.949036 243.915787,387.880707 
	C243.571564,389.950867 243.198441,392.027191 243.044785,394.115875 
	C242.638382,399.641235 238.232040,404.104675 233.147812,404.008026 
	C228.131729,403.912720 224.561981,399.666168 224.696609,393.679077 
	C224.759598,390.877747 225.209915,388.085083 225.623901,384.908142 
M232.179886,387.068207 
	C232.089935,389.728302 231.881683,392.392944 231.984039,395.045593 
	C232.013718,395.814728 232.797058,396.778534 233.504730,397.199829 
	C233.839783,397.399292 235.018600,396.691132 235.458008,396.119659 
	C237.687424,393.219910 237.621063,385.112000 234.968628,380.770111 
	C233.970215,382.868103 233.176758,384.535431 232.179886,387.068207 
z"/>
<path fill="#F4F4F4" opacity="1.000000" stroke="none" 
	d="
M347.089600,382.416626 
	C347.044647,384.311768 346.956787,385.784027 346.847565,387.613892 
	C344.425476,387.613892 342.231354,387.613892 339.757355,387.613892 
	C339.908569,385.773743 340.051270,384.036621 340.207916,382.130310 
	C335.674500,383.888916 332.867371,393.723907 335.871826,396.857880 
	C336.462402,397.473938 338.626465,397.341339 339.507935,396.739014 
	C340.800690,395.855682 341.591492,394.237793 342.744751,392.739868 
	C346.551392,394.250549 346.807892,396.395477 344.362396,399.430817 
	C341.649323,402.798340 338.350464,404.780731 333.966248,403.800659 
	C329.607300,402.826294 327.850067,399.313904 327.269012,395.381927 
	C326.318451,388.949158 327.919403,383.095764 332.759521,378.536591 
	C337.716248,373.867645 344.502777,375.593567 347.089600,382.416626 
z"/>
<path fill="#F4F4F4" opacity="1.000000" stroke="none" 
	d="
M305.026672,392.010498 
	C305.249908,387.221924 305.461639,382.926361 305.667511,378.749969 
	C316.640228,374.838318 322.008240,375.827942 323.778168,381.931702 
	C325.852905,389.086853 322.206116,393.453430 311.496429,396.476624 
	C311.315125,398.832947 311.128784,401.254578 310.930237,403.835266 
	C308.949646,403.835266 307.176178,403.835266 305.015167,403.835266 
	C305.015167,400.015564 305.015167,396.259552 305.026672,392.010498 
M311.920868,388.383911 
	C313.552887,388.042542 315.384155,388.027466 316.724670,387.208801 
	C317.309509,386.851593 317.265259,384.665955 316.780334,383.661285 
	C316.499115,383.078613 314.107300,382.698792 313.823090,383.083374 
	C312.898499,384.334473 312.507263,385.979736 311.920868,388.383911 
z"/>
<path fill="#EEEEEE" opacity="1.000000" stroke="none" 
	d="
M115.474854,376.113403 
	C116.740387,377.883636 117.560104,379.651215 118.606575,381.907745 
	C115.586349,382.414581 113.828972,382.709503 111.530968,383.095154 
	C111.208748,389.846832 110.881462,396.704529 110.543686,403.782104 
	C108.249001,403.782104 106.191872,403.782104 103.921860,403.782104 
	C103.921860,396.995880 103.921860,390.421814 103.921860,383.654327 
	C101.919846,383.844757 100.174583,384.010803 98.142853,384.204071 
	C98.142853,381.645874 98.142853,379.409149 98.142853,376.110779 
	C103.856216,376.110779 109.442635,376.110779 115.474854,376.113403 
z"/>
<path fill="#F4F4F4" opacity="1.000000" stroke="none" 
	d="
M215.123260,378.390381 
	C217.104980,377.076355 219.077972,376.225098 222.372101,374.803802 
	C221.292023,381.004883 224.226303,385.944183 220.333893,390.457092 
	C219.999939,390.844299 221.140808,392.287231 220.901825,393.010040 
	C219.868484,396.135223 219.390701,400.260956 217.150070,401.940338 
	C214.908569,403.620270 210.360123,403.903229 207.666168,402.778564 
	C205.420227,401.840942 204.394943,397.979370 202.829041,395.412781 
	C203.359207,394.821259 203.889374,394.229706 204.419540,393.638153 
	C206.952408,394.422516 209.485275,395.206909 213.232895,396.367432 
	C217.205383,391.826050 214.164398,384.963959 215.123260,378.390381 
z"/>
<path fill="#EBEBEB" opacity="1.000000" stroke="none" 
	d="
M351.292908,378.997986 
	C351.807312,373.437500 355.632996,377.284790 358.373108,375.180176 
	C357.677307,385.308411 357.054901,394.367767 356.410797,403.743500 
	C354.831573,403.743500 352.735504,403.743500 349.485809,403.743500 
	C350.091003,395.730042 350.705933,387.587280 351.292908,378.997986 
z"/>
<path fill="#040404" opacity="1.000000" stroke="none" 
	d="
M79.881363,305.801208 
	C79.881676,299.334839 80.008347,293.344574 79.832100,287.363220 
	C79.735703,284.091339 81.000397,282.839325 84.211342,283.013885 
	C87.195778,283.176147 90.196045,283.040405 93.189293,283.048859 
	C99.332275,283.066193 102.477386,284.880096 103.572090,290.756348 
	C104.396172,295.179962 104.343086,300.032288 103.449722,304.444580 
	C102.288101,310.181824 99.294106,311.872345 93.393929,311.898926 
	C90.733284,311.910919 88.048378,311.672943 85.417252,311.951874 
	C80.983559,312.421814 79.221527,310.617798 79.881363,305.801208 
z"/>
<path fill="#040404" opacity="1.000000" stroke="none" 
	d="
M97.467140,263.267761 
	C95.560394,271.200653 89.017838,274.692474 81.844154,271.694611 
	C80.873772,271.289093 80.012863,269.421600 79.970436,268.200836 
	C79.774017,262.549896 79.676918,256.874725 80.045631,251.241043 
	C80.127518,249.989883 82.137421,247.982239 83.432495,247.834061 
	C93.014587,246.737686 96.049461,248.371155 97.165245,254.950775 
	C97.604034,257.538269 97.450775,260.226135 97.467140,263.267761 
z"/>
<path fill="#040404" opacity="1.000000" stroke="none" 
	d="
M274.707428,104.242027 
	C264.306519,104.158180 265.151703,105.482491 265.131592,95.235298 
	C265.120850,89.751328 265.212738,84.265617 265.099060,78.783997 
	C265.037415,75.810684 266.221680,74.549210 269.219727,74.666489 
	C274.557220,74.875267 280.329193,73.382187 283.174957,80.281975 
	C286.114990,87.410385 285.473145,97.624840 280.880707,101.927574 
	C279.479889,103.240005 277.092621,103.499527 274.707428,104.242027 
z"/>
<path fill="#030303" opacity="1.000000" stroke="none" 
	d="
M344.698425,279.076019 
	C344.275635,288.914276 342.893646,298.037720 337.059143,305.884766 
	C330.277802,315.005219 320.679016,315.133667 313.823242,306.163483 
	C303.318146,292.418427 303.371735,266.878693 313.934479,253.148239 
	C320.610352,244.470306 330.206696,244.532318 336.888184,253.321304 
	C342.576111,260.803284 344.144623,269.565399 344.698425,279.076019 
z"/>
<path fill="#070707" opacity="1.000000" stroke="none" 
	d="
M174.626846,266.852844 
	C176.411179,264.016541 177.505569,265.312286 178.141083,267.129028 
	C180.321350,273.361969 182.460281,279.614349 184.343399,285.940155 
	C184.589691,286.767548 183.305756,288.964081 182.643478,289.001923 
	C177.919205,289.271851 173.172318,289.145935 167.296158,289.145935 
	C169.894699,281.153107 172.166306,274.165833 174.626846,266.852844 
z"/>
<path fill="#0D0D0D" opacity="1.000000" stroke="none" 
	d="
M254.119385,383.648987 
	C255.675568,382.962128 257.078308,382.671021 258.481018,382.379913 
	C258.879669,382.803802 259.278320,383.227722 259.676971,383.651642 
	C258.184082,385.473175 256.691223,387.294708 255.198364,389.116241 
	C254.725281,388.841553 254.252197,388.566864 253.779114,388.292206 
	C253.841385,386.876404 253.903656,385.460571 254.119385,383.648987 
z"/>
<path fill="#0D0D0D" opacity="1.000000" stroke="none" 
	d="
M371.527344,382.593475 
	C371.507782,386.918030 371.409210,390.873138 370.897247,394.774017 
	C370.774536,395.708954 369.276917,396.463470 368.411682,397.300995 
	C367.898560,396.373688 366.912231,395.423309 366.956177,394.523224 
	C367.125244,391.060944 367.428192,387.573608 368.137878,384.191467 
	C368.315399,383.345367 370.197845,382.856964 371.527344,382.593475 
z"/>
<path fill="#0D0D0D" opacity="1.000000" stroke="none" 
	d="
M289.849060,392.010376 
	C290.529968,388.146942 291.200775,384.738708 292.044678,380.451172 
	C296.600372,385.619354 295.655548,394.385010 290.606079,397.812042 
	C290.313751,395.774475 290.076355,394.120056 289.849060,392.010376 
z"/>
<path fill="#0D0D0D" opacity="1.000000" stroke="none" 
	d="
M232.281586,386.635498 
	C233.176758,384.535431 233.970215,382.868103 234.968628,380.770111 
	C237.621063,385.112000 237.687424,393.219910 235.458008,396.119659 
	C235.018600,396.691132 233.839783,397.399292 233.504730,397.199829 
	C232.797058,396.778534 232.013718,395.814728 231.984039,395.045593 
	C231.881683,392.392944 232.089935,389.728302 232.281586,386.635498 
z"/>
<path fill="#0D0D0D" opacity="1.000000" stroke="none" 
	d="
M311.915771,387.928589 
	C312.507263,385.979736 312.898499,384.334473 313.823090,383.083374 
	C314.107300,382.698792 316.499115,383.078613 316.780334,383.661285 
	C317.265259,384.665955 317.309509,386.851593 316.724670,387.208801 
	C315.384155,388.027466 313.552887,388.042542 311.915771,387.928589 
z"/>
</svg>