<svg version="1.1" id="Layer_1" xmlns="http://www.w3.org/2000/svg" xmlns:xlink="http://www.w3.org/1999/xlink" x="0px" y="0px"
	 width="100%" viewBox="0 0 1080 1080" enable-background="new 0 0 1080 1080" xml:space="preserve">
<path fill="#000000" opacity="1.000000" stroke="none" 
	d="
M980.000000,1081.000000 
	C653.333313,1081.000000 327.166656,1081.000000 1.000000,1081.000000 
	C1.000000,721.000000 1.000000,361.000000 1.000000,1.000000 
	C361.000000,1.000000 721.000000,1.000000 1081.000000,1.000000 
	C1081.000000,361.000000 1081.000000,721.000000 1081.000000,1081.000000 
	C1047.500000,1081.000000 1014.000000,1081.000000 980.000000,1081.000000 
M498.585266,478.860352 
	C484.113800,478.674408 469.642120,478.503479 455.171021,478.291779 
	C451.625153,478.239899 451.238953,480.439941 451.243011,483.246582 
	C451.280090,508.884247 451.310730,534.522217 451.214294,560.159546 
	C451.200623,563.795654 452.389801,565.127930 456.137939,565.078003 
	C469.620300,564.898438 483.106689,565.038025 496.591217,564.981445 
	C499.236145,564.970337 501.965454,564.979248 504.508698,564.367310 
	C514.606384,561.937927 521.373779,555.598633 523.705566,545.528198 
	C525.952087,535.825806 522.597534,527.463806 515.226013,520.845886 
	C512.871033,518.731628 510.855316,517.312561 513.209473,513.542542 
	C522.336609,498.926086 516.265503,484.029083 498.585266,478.860352 
M742.987427,560.502258 
	C744.609558,559.343750 746.301270,558.270630 747.843140,557.013611 
	C764.277283,543.616028 769.191772,520.076111 759.574585,500.979858 
	C750.201050,482.367706 729.048645,472.437256 709.343506,477.679169 
	C691.257141,482.490417 679.925110,494.382812 676.211060,512.519592 
	C672.360352,531.323914 678.502625,547.282349 694.042236,558.582642 
	C709.330872,569.700500 725.792603,569.988403 742.987427,560.502258 
M314.913757,509.499969 
	C314.913879,526.328674 315.025116,543.158691 314.832733,559.985229 
	C314.787018,563.980713 316.036896,565.353027 319.999420,565.075867 
	C324.310486,564.774414 328.671234,564.805237 332.987366,565.068176 
	C336.816071,565.301453 337.919281,563.670105 337.850372,560.091492 
	C337.690094,551.763489 337.942993,543.426758 337.733246,535.101013 
	C337.643036,531.520386 339.006531,530.469055 342.401276,530.540283 
	C345.244720,530.599976 346.911621,531.445618 348.144287,534.166077 
	C352.258087,543.244995 356.755676,552.149963 360.875366,561.226379 
	C362.165588,564.068909 363.812164,565.242981 366.954224,565.070190 
	C371.439453,564.823608 375.948700,565.045044 380.446991,564.997437 
	C385.466217,564.944336 386.006592,564.077576 383.827545,559.395386 
	C379.552582,550.209778 375.318146,541.002441 370.839996,531.915955 
	C369.380554,528.954651 369.864166,527.230835 372.417297,525.177734 
	C382.067688,517.417419 385.068268,507.014374 381.224823,495.804443 
	C377.657532,485.399780 368.492126,478.598053 356.911041,478.367493 
	C344.419373,478.118805 331.918365,478.374695 319.422913,478.256134 
	C315.937134,478.223114 314.780853,479.575104 314.854279,483.008179 
	C315.035950,491.501953 314.913849,500.002258 314.913757,509.499969 
M808.662231,479.521912 
	C802.103943,479.115479 795.536499,478.817169 788.990662,478.263794 
	C784.779541,477.907776 783.572571,479.627991 783.597168,483.729950 
	C783.749207,509.046997 783.786011,534.366333 783.573486,559.682556 
	C783.534119,564.376770 785.353516,565.256836 789.473083,565.104248 
	C793.298767,564.962585 796.125305,565.146057 796.005005,559.739319 
	C795.671509,544.755859 795.866272,529.759949 795.923035,514.769287 
	C795.929810,512.972839 796.372803,511.178070 796.613586,509.382507 
	C799.056702,510.837524 800.402222,512.450684 801.479797,514.226379 
	C808.981812,526.588989 817.386292,538.526550 823.603394,551.509277 
	C829.033569,562.848633 836.409180,567.031555 848.475098,565.179138 
	C852.158081,564.613708 853.226501,563.668091 853.210938,560.098633 
	C853.099365,534.447998 853.020203,508.795441 853.256714,483.146515 
	C853.306885,477.711731 850.163757,478.379150 846.779846,478.268494 
	C843.177734,478.150665 840.808044,478.542053 840.912720,483.296539 
	C841.206055,496.615326 841.045593,509.944916 840.976624,523.269836 
	C840.967346,525.066101 840.455566,526.859741 840.176392,528.654602 
	C839.639832,528.773254 839.103271,528.891968 838.566711,529.010620 
	C828.737427,512.731934 818.908203,496.453217 808.662231,479.521912 
M250.418488,477.961670 
	C247.612686,478.966461 244.661102,479.685364 242.027771,481.028320 
	C233.272614,485.493439 226.898010,491.965332 226.058563,502.329437 
	C225.195282,512.987976 231.119476,519.977966 239.590637,524.962952 
	C246.011414,528.741394 252.955322,531.620056 259.557098,535.106201 
	C263.206512,537.033264 267.067841,538.927246 269.997955,541.714539 
	C271.849945,543.476257 273.300659,547.096802 272.810913,549.440491 
	C272.399567,551.409180 269.116608,553.714355 266.768524,554.182251 
	C255.588760,556.409912 245.194458,554.585938 236.884552,546.059387 
	C232.384613,541.442200 230.035721,546.475586 227.335892,548.200378 
	C224.117401,550.256470 227.165802,552.254272 228.517960,553.813538 
	C241.199661,568.437744 266.587494,571.598206 283.375488,560.726501 
	C300.416809,549.690857 300.774017,529.377319 283.889923,518.086426 
	C278.955292,514.786499 273.364136,512.467163 268.069153,509.707520 
	C262.927216,507.027618 257.529938,504.728638 252.755173,501.506165 
	C250.818527,500.199066 248.963867,496.631989 249.386490,494.566956 
	C249.812241,492.486603 252.865707,489.987183 255.193710,489.420319 
	C264.747742,487.093903 274.001953,487.717682 282.103821,494.300781 
	C285.750153,497.263519 286.943359,496.575531 291.794250,490.605988 
	C294.550751,487.213837 291.997650,485.785522 289.848328,484.342865 
	C277.978851,476.375916 265.026093,474.539368 250.418488,477.961670 
M548.011169,565.006042 
	C549.319702,563.757141 551.219299,562.743652 551.827820,561.216003 
	C553.790405,556.289124 555.043640,551.075134 557.085388,546.187012 
	C557.727173,544.650391 559.938232,542.883057 561.527710,542.784668 
	C567.832092,542.394592 574.176575,542.709900 580.502563,542.583801 
	C583.340637,542.527283 584.622070,543.762573 585.385864,546.407471 
	C586.720398,551.028259 588.626892,555.488708 589.867615,560.130249 
	C590.837097,563.757080 592.518860,565.415527 596.479492,565.089478 
	C600.780334,564.735229 605.133057,565.021790 609.463013,565.006104 
	C615.455872,564.984375 615.840454,564.436523 613.813538,558.643494 
	C605.753601,535.608154 597.832275,512.522644 589.551758,489.566803 
	C584.729980,476.199554 588.552429,478.663849 573.432800,478.214081 
	C569.229370,478.089020 567.264465,479.491852 565.890930,483.522797 
	C557.644897,507.722717 549.122864,531.828613 540.681702,555.961914 
	C537.515442,565.014160 537.501160,565.009155 548.011169,565.006042 
M645.947510,572.441589 
	C650.983582,565.971375 654.454956,558.512268 654.756287,550.514648 
	C655.621033,527.562866 655.712463,504.580231 655.852173,481.608154 
	C655.858765,480.514679 653.476318,478.563782 652.094055,478.456238 
	C647.125732,478.069763 642.108765,478.339813 637.110901,478.289062 
	C634.150330,478.259033 632.928772,479.596313 633.034851,482.571014 
	C633.177368,486.564606 633.119751,490.567902 633.060730,494.565735 
	C632.765930,514.544434 632.748901,534.534241 632.005554,554.496643 
	C631.609985,565.120544 627.340515,574.226929 617.508911,579.716736 
	C614.707581,581.280945 614.985596,583.146179 616.203918,585.518860 
	C617.454102,587.953552 618.580872,589.491821 621.943604,588.262939 
	C631.005371,584.951355 639.268066,580.591003 645.947510,572.441589 
M459.999695,633.904175 
	C461.104553,632.296753 462.209412,630.689392 463.415314,628.934937 
	C466.451050,636.087158 468.357849,629.454102 470.886261,627.579590 
	C471.048523,629.942017 471.177734,631.822937 471.316284,633.839722 
	C473.784882,633.839722 475.903229,633.839722 478.318909,633.839722 
	C478.318909,625.888611 478.431671,618.097961 478.195190,610.317993 
	C478.160431,609.174744 476.415192,607.125854 475.552765,607.172913 
	C473.956604,607.260010 471.859985,608.201965 470.993164,609.480347 
	C469.342651,611.914673 468.410583,614.836121 466.807404,618.379211 
	C462.993500,605.724487 462.613739,605.352539 456.061584,607.373535 
	C455.663605,616.020752 455.261108,624.765198 454.838043,633.957031 
	C456.584106,633.957031 457.856628,633.957031 459.999695,633.904175 
M427.068848,548.600403 
	C422.965271,542.901001 418.186005,540.940918 412.620148,542.674561 
	C407.137115,544.382446 403.724548,548.921570 403.696472,554.544189 
	C403.669342,559.976807 406.862335,564.644836 411.999969,566.372131 
	C416.827209,567.994995 421.312653,567.120117 424.895752,563.498718 
	C428.917145,559.434265 429.735107,554.570435 427.068848,548.600403 
M700.598328,628.242432 
	C700.598328,621.004089 700.598328,613.765747 700.598328,606.501587 
	C698.764587,606.501587 696.993958,606.501587 695.131775,606.501587 
	C694.791443,609.424072 694.481445,612.085693 694.000977,616.211304 
	C692.510010,612.674500 692.060608,610.167664 690.603638,608.593384 
	C689.365479,607.255554 687.010559,606.706604 685.056580,606.397522 
	C684.286316,606.275635 682.539429,607.686707 682.467407,608.507568 
	C681.731995,616.896057 681.250122,625.306824 680.696899,633.718018 
	C683.537781,633.718018 685.603943,633.718018 688.269653,633.718018 
	C688.269653,630.074890 688.269653,626.732300 688.269653,622.552612 
	C692.868652,626.480591 690.383423,636.625000 700.334290,633.415833 
	C700.415588,632.093140 700.505371,630.632812 700.598328,628.242432 
M496.028503,626.437866 
	C493.454742,626.437866 490.880981,626.437866 488.307220,626.437866 
	C488.141418,625.840942 487.975616,625.244080 487.809814,624.647156 
	C489.672577,624.075256 491.509918,623.136353 493.403198,623.005249 
	C497.824921,622.698792 498.765045,620.715820 496.945435,616.560730 
	C494.211243,616.560730 491.499634,616.560730 488.788025,616.560730 
	C488.676544,615.970764 488.565094,615.380798 488.453613,614.790771 
	C490.756927,614.204834 493.029968,613.347046 495.369476,613.086792 
	C501.126129,612.446289 501.407440,612.167542 499.858826,605.951233 
	C494.184052,606.272522 488.427307,606.598511 482.189240,606.951721 
	C481.733337,616.147949 481.295074,624.988403 480.837646,634.215454 
	C487.625916,633.807434 493.412537,633.459595 499.582428,633.088745 
	C499.000793,630.425537 501.911591,626.998535 496.028503,626.437866 
M546.759827,618.925903 
	C546.439819,623.828857 546.119812,628.731873 545.800049,633.630371 
	C548.386475,633.630371 550.161926,633.630371 551.954163,633.630371 
	C552.431519,630.688416 552.870544,627.982422 553.309631,625.276489 
	C553.749512,625.250916 554.189453,625.225342 554.629395,625.199768 
	C556.328552,628.128662 558.027649,631.057617 559.885864,634.260742 
	C561.877808,632.915710 563.594543,631.756409 565.400208,630.537109 
	C563.924744,627.614197 562.666016,625.120667 561.462891,622.737244 
	C562.444458,621.492188 563.860413,620.511658 563.980103,619.392639 
	C564.348938,615.941589 565.276367,611.923584 563.916504,609.135803 
	C563.017761,607.293274 558.516907,606.330078 555.700623,606.465637 
	C547.304321,606.869873 547.319336,607.157593 546.966797,615.511658 
	C546.931763,616.343262 546.872009,617.173889 546.759827,618.925903 
M432.513336,607.301697 
	C432.389740,608.288025 432.218536,609.271118 432.150726,610.261230 
	C431.832642,614.907166 431.704681,619.575439 431.122894,624.187012 
	C430.987366,625.260986 429.343048,626.144592 428.392975,627.115784 
	C427.649750,626.009033 426.534515,624.986206 426.260925,623.773499 
	C425.945129,622.373718 426.372253,620.806519 426.475616,619.311951 
	C426.767853,615.084290 427.059418,610.856689 427.350983,606.632690 
	C424.739136,606.632690 422.961609,606.632690 420.659698,606.632690 
	C420.166504,612.794983 419.419708,618.733215 419.288940,624.685120 
	C419.149994,631.009033 421.232452,633.543152 425.940552,633.989502 
	C432.363525,634.598328 437.081940,631.867676 437.909637,626.112122 
	C438.819855,619.782532 438.839905,613.324890 439.282532,606.377808 
	C436.658508,606.520752 434.892609,606.616943 432.513336,607.301697 
M541.037598,628.366638 
	C541.520508,623.015686 542.747009,617.580017 542.151733,612.351807 
	C541.880981,609.973694 538.353882,607.146667 535.679993,606.064270 
	C532.134399,604.628967 528.465088,606.623962 527.080811,610.138672 
	C525.484924,614.190796 524.604187,618.620483 524.065796,622.967041 
	C523.495789,627.568848 525.128723,631.749146 529.753906,633.495911 
	C534.442810,635.266785 538.116699,633.159119 541.037598,628.366638 
M627.509338,628.786560 
	C631.770752,635.537170 638.892822,635.776428 643.690735,629.415710 
	C645.818970,626.594360 645.984924,624.370300 642.134033,622.673279 
	C641.041321,624.042297 640.152710,625.798279 638.725037,626.709717 
	C637.831482,627.279968 635.412476,627.081604 634.906433,626.363037 
	C632.439880,622.860352 634.938110,614.429749 639.125183,611.987793 
	C639.125183,614.005737 639.125183,615.849609 639.125183,617.777832 
	C641.530823,617.777832 643.627808,617.777832 645.669983,617.777832 
	C647.112427,611.709900 646.122986,608.521667 642.397400,606.837952 
	C638.131165,604.910095 633.580017,606.095093 630.439392,610.185303 
	C626.315857,615.555542 625.231079,621.559326 627.509338,628.786560 
M595.296997,632.156860 
	C596.927917,629.564026 598.721558,627.054077 600.107239,624.336243 
	C600.639526,623.292114 599.781494,621.510437 600.349243,620.518188 
	C602.580627,616.618530 600.880066,609.320374 596.913940,606.880859 
	C592.768433,604.330994 587.121033,605.495056 585.223450,610.490173 
	C583.356445,615.404968 582.213196,621.059570 582.602112,626.250916 
	C583.110107,633.032654 588.624634,635.427612 595.296997,632.156860 
M662.750916,609.330811 
	C658.886658,615.423401 657.940186,622.010559 660.263733,628.771179 
	C661.768066,633.148376 666.544800,635.160400 670.359436,633.712830 
	C674.195496,632.257019 676.850708,627.417114 676.151428,623.495422 
	C676.005920,622.678894 676.423828,621.625916 676.881348,620.860779 
	C679.177246,617.020996 678.401367,610.814026 675.154419,607.804993 
	C671.852661,604.745178 667.616089,605.075195 662.750916,609.330811 
M604.561279,633.894409 
	C606.361267,633.894409 608.161316,633.894409 610.270569,633.894409 
	C610.486572,631.255798 610.686035,628.819214 610.877869,626.476257 
	C621.789917,623.383423 625.449280,618.656372 622.817810,611.298157 
	C620.806396,605.673767 614.933350,604.839050 604.024292,609.214661 
	C604.024292,616.894958 604.024292,625.012024 604.561279,633.894409 
M399.151184,606.453369 
	C398.215546,608.810791 397.279938,611.168152 396.092651,614.159729 
	C399.415985,614.006409 401.186676,613.924744 403.237122,613.830200 
	C403.237122,620.595886 403.237122,627.154114 403.237122,633.710388 
	C405.578491,633.710388 407.631714,633.710388 409.732971,633.710388 
	C410.139740,626.666199 410.528717,619.929871 410.920074,613.152344 
	C413.029816,612.757202 414.895325,612.407776 416.676208,612.074280 
	C416.676208,609.958374 416.676208,608.224365 416.676208,606.409058 
	C410.920074,606.409058 405.479248,606.409058 399.151184,606.453369 
M503.629364,629.543335 
	C505.188965,633.452881 508.606262,634.981201 512.054077,633.801636 
	C514.987305,632.798157 518.939392,630.346130 519.550842,627.832031 
	C521.231323,620.922668 521.392883,613.643860 522.169739,606.377991 
	C518.825317,606.377991 516.781921,606.377991 514.857971,606.377991 
	C512.850464,613.384644 516.477600,621.026001 512.420105,626.440796 
	C508.872314,625.247070 506.324799,624.389893 502.847351,623.219849 
	C503.067230,625.979614 503.179535,627.388855 503.629364,629.543335 
M656.883118,618.666260 
	C656.883118,614.552551 656.883118,610.438904 656.883118,606.220642 
	C654.966797,606.220642 652.879333,606.220642 650.350769,606.220642 
	C649.816284,615.490295 649.295349,624.523987 648.764648,633.727478 
	C651.719177,633.727478 653.941162,633.727478 656.843994,633.727478 
	C656.843994,628.833374 656.843994,624.230408 656.883118,618.666260 
z"/>
<path fill="#FBF9F9" opacity="1.000000" stroke="none" 
	d="
M499.002167,478.909241 
	C516.265503,484.029083 522.336609,498.926086 513.209473,513.542542 
	C510.855316,517.312561 512.871033,518.731628 515.226013,520.845886 
	C522.597534,527.463806 525.952087,535.825806 523.705566,545.528198 
	C521.373779,555.598633 514.606384,561.937927 504.508698,564.367310 
	C501.965454,564.979248 499.236145,564.970337 496.591217,564.981445 
	C483.106689,565.038025 469.620300,564.898438 456.137939,565.078003 
	C452.389801,565.127930 451.200623,563.795654 451.214294,560.159546 
	C451.310730,534.522217 451.280090,508.884247 451.243011,483.246582 
	C451.238953,480.439941 451.625153,478.239899 455.171021,478.291779 
	C469.642120,478.503479 484.113800,478.674408 499.002167,478.909241 
M495.151428,527.216614 
	C489.055664,523.022522 482.315033,525.507141 475.843201,525.551941 
	C475.304626,525.555664 474.389893,527.971924 474.326233,529.299744 
	C474.127045,533.455017 474.209991,537.626343 474.258850,541.790588 
	C474.425812,556.014893 472.381683,553.417358 486.432190,554.006653 
	C494.212280,554.332886 497.360565,551.634827 498.878967,543.012146 
	C499.818634,537.676331 499.128937,532.368469 495.151428,527.216614 
M474.251282,501.498901 
	C474.252197,504.321930 474.119873,507.154297 474.316498,509.963623 
	C474.400696,511.166351 474.827026,512.788757 475.685883,513.418335 
	C479.802887,516.436035 490.018280,513.288391 491.026276,508.320770 
	C491.885834,504.084778 491.687469,499.492188 491.148163,495.158020 
	C490.695190,491.517914 488.022980,489.597900 484.039154,489.651489 
	C472.864655,489.801788 474.357971,488.679504 474.251923,499.037415 
	C474.246826,499.535553 474.251282,500.033783 474.251282,501.498901 
z"/>
<path fill="#FBF9F9" opacity="1.000000" stroke="none" 
	d="
M742.684082,560.702637 
	C725.792603,569.988403 709.330872,569.700500 694.042236,558.582642 
	C678.502625,547.282349 672.360352,531.323914 676.211060,512.519592 
	C679.925110,494.382812 691.257141,482.490417 709.343506,477.679169 
	C729.048645,472.437256 750.201050,482.367706 759.574585,500.979858 
	C769.191772,520.076111 764.277283,543.616028 747.843140,557.013611 
	C746.301270,558.270630 744.609558,559.343750 742.684082,560.702637 
M717.915039,488.894379 
	C715.106201,490.539459 711.719238,491.642395 709.584290,493.919312 
	C697.521484,506.784393 697.611267,536.406860 709.464905,549.609070 
	C715.626831,556.472107 724.077271,556.485901 730.215942,549.539734 
	C731.635193,547.933777 732.989197,546.157532 733.903687,544.236206 
	C741.057556,529.205750 741.157654,514.034790 733.812439,499.118286 
	C730.867004,493.136688 726.436279,488.333862 717.915039,488.894379 
z"/>
<path fill="#FBF9F9" opacity="1.000000" stroke="none" 
	d="
M314.913757,508.999939 
	C314.913849,500.002258 315.035950,491.501953 314.854279,483.008179 
	C314.780853,479.575104 315.937134,478.223114 319.422913,478.256134 
	C331.918365,478.374695 344.419373,478.118805 356.911041,478.367493 
	C368.492126,478.598053 377.657532,485.399780 381.224823,495.804443 
	C385.068268,507.014374 382.067688,517.417419 372.417297,525.177734 
	C369.864166,527.230835 369.380554,528.954651 370.839996,531.915955 
	C375.318146,541.002441 379.552582,550.209778 383.827545,559.395386 
	C386.006592,564.077576 385.466217,564.944336 380.446991,564.997437 
	C375.948700,565.045044 371.439453,564.823608 366.954224,565.070190 
	C363.812164,565.242981 362.165588,564.068909 360.875366,561.226379 
	C356.755676,552.149963 352.258087,543.244995 348.144287,534.166077 
	C346.911621,531.445618 345.244720,530.599976 342.401276,530.540283 
	C339.006531,530.469055 337.643036,531.520386 337.733246,535.101013 
	C337.942993,543.426758 337.690094,551.763489 337.850372,560.091492 
	C337.919281,563.670105 336.816071,565.301453 332.987366,565.068176 
	C328.671234,564.805237 324.310486,564.774414 319.999420,565.075867 
	C316.036896,565.353027 314.787018,563.980713 314.832733,559.985229 
	C315.025116,543.158691 314.913879,526.328674 314.913757,508.999939 
M337.793671,494.640137 
	C337.793823,501.440033 337.747955,508.240509 337.836151,515.039246 
	C337.852203,516.277954 338.041107,517.863525 338.804169,518.671204 
	C340.431580,520.393738 351.543732,518.982788 353.401459,517.073853 
	C357.616577,512.742615 358.567963,502.145691 355.758453,495.357269 
	C352.833954,488.290863 346.847351,489.867615 341.361298,489.676239 
	C338.426758,489.573883 337.553619,491.066010 337.793671,494.640137 
z"/>
<path fill="#FCFAFA" opacity="1.000000" stroke="none" 
	d="
M808.870605,479.848206 
	C818.908203,496.453217 828.737427,512.731934 838.566711,529.010620 
	C839.103271,528.891968 839.639832,528.773254 840.176392,528.654602 
	C840.455566,526.859741 840.967346,525.066101 840.976624,523.269836 
	C841.045593,509.944916 841.206055,496.615326 840.912720,483.296539 
	C840.808044,478.542053 843.177734,478.150665 846.779846,478.268494 
	C850.163757,478.379150 853.306885,477.711731 853.256714,483.146515 
	C853.020203,508.795441 853.099365,534.447998 853.210938,560.098633 
	C853.226501,563.668091 852.158081,564.613708 848.475098,565.179138 
	C836.409180,567.031555 829.033569,562.848633 823.603394,551.509277 
	C817.386292,538.526550 808.981812,526.588989 801.479797,514.226379 
	C800.402222,512.450684 799.056702,510.837524 796.613586,509.382507 
	C796.372803,511.178070 795.929810,512.972839 795.923035,514.769287 
	C795.866272,529.759949 795.671509,544.755859 796.005005,559.739319 
	C796.125305,565.146057 793.298767,564.962585 789.473083,565.104248 
	C785.353516,565.256836 783.534119,564.376770 783.573486,559.682556 
	C783.786011,534.366333 783.749207,509.046997 783.597168,483.729950 
	C783.572571,479.627991 784.779541,477.907776 788.990662,478.263794 
	C795.536499,478.817169 802.103943,479.115479 808.870605,479.848206 
z"/>
<path fill="#FBF9F9" opacity="1.000000" stroke="none" 
	d="
M250.825348,477.889435 
	C265.026093,474.539368 277.978851,476.375916 289.848328,484.342865 
	C291.997650,485.785522 294.550751,487.213837 291.794250,490.605988 
	C286.943359,496.575531 285.750153,497.263519 282.103821,494.300781 
	C274.001953,487.717682 264.747742,487.093903 255.193710,489.420319 
	C252.865707,489.987183 249.812241,492.486603 249.386490,494.566956 
	C248.963867,496.631989 250.818527,500.199066 252.755173,501.506165 
	C257.529938,504.728638 262.927216,507.027618 268.069153,509.707520 
	C273.364136,512.467163 278.955292,514.786499 283.889923,518.086426 
	C300.774017,529.377319 300.416809,549.690857 283.375488,560.726501 
	C266.587494,571.598206 241.199661,568.437744 228.517960,553.813538 
	C227.165802,552.254272 224.117401,550.256470 227.335892,548.200378 
	C230.035721,546.475586 232.384613,541.442200 236.884552,546.059387 
	C245.194458,554.585938 255.588760,556.409912 266.768524,554.182251 
	C269.116608,553.714355 272.399567,551.409180 272.810913,549.440491 
	C273.300659,547.096802 271.849945,543.476257 269.997955,541.714539 
	C267.067841,538.927246 263.206512,537.033264 259.557098,535.106201 
	C252.955322,531.620056 246.011414,528.741394 239.590637,524.962952 
	C231.119476,519.977966 225.195282,512.987976 226.058563,502.329437 
	C226.898010,491.965332 233.272614,485.493439 242.027771,481.028320 
	C244.661102,479.685364 247.612686,478.966461 250.825348,477.889435 
z"/>
<path fill="#FAF8F8" opacity="1.000000" stroke="none" 
	d="
M547.578247,565.007568 
	C537.501160,565.009155 537.515442,565.014160 540.681702,555.961914 
	C549.122864,531.828613 557.644897,507.722717 565.890930,483.522797 
	C567.264465,479.491852 569.229370,478.089020 573.432800,478.214081 
	C588.552429,478.663849 584.729980,476.199554 589.551758,489.566803 
	C597.832275,512.522644 605.753601,535.608154 613.813538,558.643494 
	C615.840454,564.436523 615.455872,564.984375 609.463013,565.006104 
	C605.133057,565.021790 600.780334,564.735229 596.479492,565.089478 
	C592.518860,565.415527 590.837097,563.757080 589.867615,560.130249 
	C588.626892,555.488708 586.720398,551.028259 585.385864,546.407471 
	C584.622070,543.762573 583.340637,542.527283 580.502563,542.583801 
	C574.176575,542.709900 567.832092,542.394592 561.527710,542.784668 
	C559.938232,542.883057 557.727173,544.650391 557.085388,546.187012 
	C555.043640,551.075134 553.790405,556.289124 551.827820,561.216003 
	C551.219299,562.743652 549.319702,563.757141 547.578247,565.007568 
M565.842163,531.222168 
	C570.240845,531.222168 574.639526,531.222168 580.330994,531.222168 
	C577.350830,522.272400 574.772095,514.528015 572.193359,506.783630 
	C571.418640,506.819611 570.643860,506.855560 569.869141,506.891541 
	C567.557556,514.225220 565.196289,521.544434 563.040955,528.923767 
	C562.890320,529.439636 564.264954,530.401001 565.842163,531.222168 
z"/>
<path fill="#FBF9F9" opacity="1.000000" stroke="none" 
	d="
M645.723083,572.718384 
	C639.268066,580.591003 631.005371,584.951355 621.943604,588.262939 
	C618.580872,589.491821 617.454102,587.953552 616.203918,585.518860 
	C614.985596,583.146179 614.707581,581.280945 617.508911,579.716736 
	C627.340515,574.226929 631.609985,565.120544 632.005554,554.496643 
	C632.748901,534.534241 632.765930,514.544434 633.060730,494.565735 
	C633.119751,490.567902 633.177368,486.564606 633.034851,482.571014 
	C632.928772,479.596313 634.150330,478.259033 637.110901,478.289062 
	C642.108765,478.339813 647.125732,478.069763 652.094055,478.456238 
	C653.476318,478.563782 655.858765,480.514679 655.852173,481.608154 
	C655.712463,504.580231 655.621033,527.562866 654.756287,550.514648 
	C654.454956,558.512268 650.983582,565.971375 645.723083,572.718384 
z"/>
<path fill="#F3F1F1" opacity="1.000000" stroke="none" 
	d="
M459.564392,633.930603 
	C457.856628,633.957031 456.584106,633.957031 454.838043,633.957031 
	C455.261108,624.765198 455.663605,616.020752 456.061584,607.373535 
	C462.613739,605.352539 462.993500,605.724487 466.807404,618.379211 
	C468.410583,614.836121 469.342651,611.914673 470.993164,609.480347 
	C471.859985,608.201965 473.956604,607.260010 475.552765,607.172913 
	C476.415192,607.125854 478.160431,609.174744 478.195190,610.317993 
	C478.431671,618.097961 478.318909,625.888611 478.318909,633.839722 
	C475.903229,633.839722 473.784882,633.839722 471.316284,633.839722 
	C471.177734,631.822937 471.048523,629.942017 470.886261,627.579590 
	C468.357849,629.454102 466.451050,636.087158 463.415314,628.934937 
	C462.209412,630.689392 461.104553,632.296753 459.564392,633.930603 
z"/>
<path fill="#FAF8F8" opacity="1.000000" stroke="none" 
	d="
M427.251770,548.932068 
	C429.735107,554.570435 428.917145,559.434265 424.895752,563.498718 
	C421.312653,567.120117 416.827209,567.994995 411.999969,566.372131 
	C406.862335,564.644836 403.669342,559.976807 403.696472,554.544189 
	C403.724548,548.921570 407.137115,544.382446 412.620148,542.674561 
	C418.186005,540.940918 422.965271,542.901001 427.251770,548.932068 
z"/>
<path fill="#EEECEC" opacity="1.000000" stroke="none" 
	d="
M700.596741,628.707458 
	C700.505371,630.632812 700.415588,632.093140 700.334290,633.415833 
	C690.383423,636.625000 692.868652,626.480591 688.269653,622.552612 
	C688.269653,626.732300 688.269653,630.074890 688.269653,633.718018 
	C685.603943,633.718018 683.537781,633.718018 680.696899,633.718018 
	C681.250122,625.306824 681.731995,616.896057 682.467407,608.507568 
	C682.539429,607.686707 684.286316,606.275635 685.056580,606.397522 
	C687.010559,606.706604 689.365479,607.255554 690.603638,608.593384 
	C692.060608,610.167664 692.510010,612.674500 694.000977,616.211304 
	C694.481445,612.085693 694.791443,609.424072 695.131775,606.501587 
	C696.993958,606.501587 698.764587,606.501587 700.598328,606.501587 
	C700.598328,613.765747 700.598328,621.004089 700.596741,628.707458 
z"/>
<path fill="#EEECEC" opacity="1.000000" stroke="none" 
	d="
M496.468781,626.416138 
	C501.911591,626.998535 499.000793,630.425537 499.582428,633.088745 
	C493.412537,633.459595 487.625916,633.807434 480.837646,634.215454 
	C481.295074,624.988403 481.733337,616.147949 482.189240,606.951721 
	C488.427307,606.598511 494.184052,606.272522 499.858826,605.951233 
	C501.407440,612.167542 501.126129,612.446289 495.369476,613.086792 
	C493.029968,613.347046 490.756927,614.204834 488.453613,614.790771 
	C488.565094,615.380798 488.676544,615.970764 488.788025,616.560730 
	C491.499634,616.560730 494.211243,616.560730 496.945435,616.560730 
	C498.765045,620.715820 497.824921,622.698792 493.403198,623.005249 
	C491.509918,623.136353 489.672577,624.075256 487.809814,624.647156 
	C487.975616,625.244080 488.141418,625.840942 488.307220,626.437866 
	C490.880981,626.437866 493.454742,626.437866 496.468781,626.416138 
z"/>
<path fill="#F3F1F1" opacity="1.000000" stroke="none" 
	d="
M546.791748,618.465454 
	C546.872009,617.173889 546.931763,616.343262 546.966797,615.511658 
	C547.319336,607.157593 547.304321,606.869873 555.700623,606.465637 
	C558.516907,606.330078 563.017761,607.293274 563.916504,609.135803 
	C565.276367,611.923584 564.348938,615.941589 563.980103,619.392639 
	C563.860413,620.511658 562.444458,621.492188 561.462891,622.737244 
	C562.666016,625.120667 563.924744,627.614197 565.400208,630.537109 
	C563.594543,631.756409 561.877808,632.915710 559.885864,634.260742 
	C558.027649,631.057617 556.328552,628.128662 554.629395,625.199768 
	C554.189453,625.225342 553.749512,625.250916 553.309631,625.276489 
	C552.870544,627.982422 552.431519,630.688416 551.954163,633.630371 
	C550.161926,633.630371 548.386475,633.630371 545.800049,633.630371 
	C546.119812,628.731873 546.439819,623.828857 546.791748,618.465454 
M558.006409,612.608459 
	C553.048706,611.957336 552.627625,614.810181 553.289062,618.718018 
	C556.543823,618.041748 559.135986,616.978577 558.006409,612.608459 
z"/>
<path fill="#EEECEC" opacity="1.000000" stroke="none" 
	d="
M432.820007,607.007446 
	C434.892609,606.616943 436.658508,606.520752 439.282532,606.377808 
	C438.839905,613.324890 438.819855,619.782532 437.909637,626.112122 
	C437.081940,631.867676 432.363525,634.598328 425.940552,633.989502 
	C421.232452,633.543152 419.149994,631.009033 419.288940,624.685120 
	C419.419708,618.733215 420.166504,612.794983 420.659698,606.632690 
	C422.961609,606.632690 424.739136,606.632690 427.350983,606.632690 
	C427.059418,610.856689 426.767853,615.084290 426.475616,619.311951 
	C426.372253,620.806519 425.945129,622.373718 426.260925,623.773499 
	C426.534515,624.986206 427.649750,626.009033 428.392975,627.115784 
	C429.343048,626.144592 430.987366,625.260986 431.122894,624.187012 
	C431.704681,619.575439 431.832642,614.907166 432.150726,610.261230 
	C432.218536,609.271118 432.389740,608.288025 432.820007,607.007446 
z"/>
<path fill="#EEECEC" opacity="1.000000" stroke="none" 
	d="
M540.878235,628.714966 
	C538.116699,633.159119 534.442810,635.266785 529.753906,633.495911 
	C525.128723,631.749146 523.495789,627.568848 524.065796,622.967041 
	C524.604187,618.620483 525.484924,614.190796 527.080811,610.138672 
	C528.465088,606.623962 532.134399,604.628967 535.679993,606.064270 
	C538.353882,607.146667 541.880981,609.973694 542.151733,612.351807 
	C542.747009,617.580017 541.520508,623.015686 540.878235,628.714966 
M531.276733,625.977722 
	C532.428528,626.047852 534.462341,626.474060 534.599365,626.134644 
	C536.533508,621.342896 537.015625,616.448730 535.219299,611.147522 
	C531.529541,614.327698 530.904114,616.657593 531.276733,625.977722 
z"/>
<path fill="#EEECEC" opacity="1.000000" stroke="none" 
	d="
M627.335449,628.431885 
	C625.231079,621.559326 626.315857,615.555542 630.439392,610.185303 
	C633.580017,606.095093 638.131165,604.910095 642.397400,606.837952 
	C646.122986,608.521667 647.112427,611.709900 645.669983,617.777832 
	C643.627808,617.777832 641.530823,617.777832 639.125183,617.777832 
	C639.125183,615.849609 639.125183,614.005737 639.125183,611.987793 
	C634.938110,614.429749 632.439880,622.860352 634.906433,626.363037 
	C635.412476,627.081604 637.831482,627.279968 638.725037,626.709717 
	C640.152710,625.798279 641.041321,624.042297 642.134033,622.673279 
	C645.984924,624.370300 645.818970,626.594360 643.690735,629.415710 
	C638.892822,635.776428 631.770752,635.537170 627.335449,628.431885 
z"/>
<path fill="#F3F1F1" opacity="1.000000" stroke="none" 
	d="
M595.087280,632.461731 
	C588.624634,635.427612 583.110107,633.032654 582.602112,626.250916 
	C582.213196,621.059570 583.356445,615.404968 585.223450,610.490173 
	C587.121033,605.495056 592.768433,604.330994 596.913940,606.880859 
	C600.880066,609.320374 602.580627,616.618530 600.349243,620.518188 
	C599.781494,621.510437 600.639526,623.292114 600.107239,624.336243 
	C598.721558,627.054077 596.927917,629.564026 595.087280,632.461731 
M590.622986,627.318542 
	C595.054443,625.072388 596.214233,616.468323 592.419556,610.926819 
	C589.175598,616.096741 588.284546,621.242126 590.622986,627.318542 
z"/>
<path fill="#F3F1F1" opacity="1.000000" stroke="none" 
	d="
M662.968140,609.034119 
	C667.616089,605.075195 671.852661,604.745178 675.154419,607.804993 
	C678.401367,610.814026 679.177246,617.020996 676.881348,620.860779 
	C676.423828,621.625916 676.005920,622.678894 676.151428,623.495422 
	C676.850708,627.417114 674.195496,632.257019 670.359436,633.712830 
	C666.544800,635.160400 661.768066,633.148376 660.263733,628.771179 
	C657.940186,622.010559 658.886658,615.423401 662.968140,609.034119 
M666.425415,619.030823 
	C666.556885,621.871704 666.688354,624.712646 666.874512,628.735657 
	C672.275391,623.639343 672.966980,615.790894 668.921448,610.408386 
	C668.003357,613.473022 667.291992,615.847778 666.425415,619.030823 
z"/>
<path fill="#F3F1F1" opacity="1.000000" stroke="none" 
	d="
M604.292786,633.511719 
	C604.024292,625.012024 604.024292,616.894958 604.024292,609.214661 
	C614.933350,604.839050 620.806396,605.673767 622.817810,611.298157 
	C625.449280,618.656372 621.789917,623.383423 610.877869,626.476257 
	C610.686035,628.819214 610.486572,631.255798 610.270569,633.894409 
	C608.161316,633.894409 606.361267,633.894409 604.292786,633.511719 
M616.708435,614.585388 
	C615.078979,613.964050 613.449585,613.342651 611.242676,612.501099 
	C611.242676,615.651978 611.242676,617.420105 611.242676,619.188232 
	C611.599670,619.491699 611.956665,619.795227 612.313721,620.098755 
	C613.822327,618.528320 615.330994,616.957947 616.708435,614.585388 
z"/>
<path fill="#E9E8E8" opacity="1.000000" stroke="none" 
	d="
M399.594788,606.431213 
	C405.479248,606.409058 410.920074,606.409058 416.676208,606.409058 
	C416.676208,608.224365 416.676208,609.958374 416.676208,612.074280 
	C414.895325,612.407776 413.029816,612.757202 410.920074,613.152344 
	C410.528717,619.929871 410.139740,626.666199 409.732971,633.710388 
	C407.631714,633.710388 405.578491,633.710388 403.237122,633.710388 
	C403.237122,627.154114 403.237122,620.595886 403.237122,613.830200 
	C401.186676,613.924744 399.415985,614.006409 396.092651,614.159729 
	C397.279938,611.168152 398.215546,608.810791 399.594788,606.431213 
z"/>
<path fill="#E9E8E8" opacity="1.000000" stroke="none" 
	d="
M503.460571,629.170715 
	C503.179535,627.388855 503.067230,625.979614 502.847351,623.219849 
	C506.324799,624.389893 508.872314,625.247070 512.420105,626.440796 
	C516.477600,621.026001 512.850464,613.384644 514.857971,606.377991 
	C516.781921,606.377991 518.825317,606.377991 522.169739,606.377991 
	C521.392883,613.643860 521.231323,620.922668 519.550842,627.832031 
	C518.939392,630.346130 514.987305,632.798157 512.054077,633.801636 
	C508.606262,634.981201 505.188965,633.452881 503.460571,629.170715 
z"/>
<path fill="#E9E8E8" opacity="1.000000" stroke="none" 
	d="
M656.863525,619.146851 
	C656.843994,624.230408 656.843994,628.833374 656.843994,633.727478 
	C653.941162,633.727478 651.719177,633.727478 648.764648,633.727478 
	C649.295349,624.523987 649.816284,615.490295 650.350769,606.220642 
	C652.879333,606.220642 654.966797,606.220642 656.883118,606.220642 
	C656.883118,610.438904 656.883118,614.552551 656.863525,619.146851 
z"/>
<path fill="#060606" opacity="1.000000" stroke="none" 
	d="
M495.420685,527.506348 
	C499.128937,532.368469 499.818634,537.676331 498.878967,543.012146 
	C497.360565,551.634827 494.212280,554.332886 486.432190,554.006653 
	C472.381683,553.417358 474.425812,556.014893 474.258850,541.790588 
	C474.209991,537.626343 474.127045,533.455017 474.326233,529.299744 
	C474.389893,527.971924 475.304626,525.555664 475.843201,525.551941 
	C482.315033,525.507141 489.055664,523.022522 495.420685,527.506348 
z"/>
<path fill="#060606" opacity="1.000000" stroke="none" 
	d="
M474.251282,501.015442 
	C474.251282,500.033783 474.246826,499.535553 474.251923,499.037415 
	C474.357971,488.679504 472.864655,489.801788 484.039154,489.651489 
	C488.022980,489.597900 490.695190,491.517914 491.148163,495.158020 
	C491.687469,499.492188 491.885834,504.084778 491.026276,508.320770 
	C490.018280,513.288391 479.802887,516.436035 475.685883,513.418335 
	C474.827026,512.788757 474.400696,511.166351 474.316498,509.963623 
	C474.119873,507.154297 474.252197,504.321930 474.251282,501.015442 
z"/>
<path fill="#020202" opacity="1.000000" stroke="none" 
	d="
M718.329468,488.854034 
	C726.436279,488.333862 730.867004,493.136688 733.812439,499.118286 
	C741.157654,514.034790 741.057556,529.205750 733.903687,544.236206 
	C732.989197,546.157532 731.635193,547.933777 730.215942,549.539734 
	C724.077271,556.485901 715.626831,556.472107 709.464905,549.609070 
	C697.611267,536.406860 697.521484,506.784393 709.584290,493.919312 
	C711.719238,491.642395 715.106201,490.539459 718.329468,488.854034 
z"/>
<path fill="#020202" opacity="1.000000" stroke="none" 
	d="
M337.794006,494.156738 
	C337.553619,491.066010 338.426758,489.573883 341.361298,489.676239 
	C346.847351,489.867615 352.833954,488.290863 355.758453,495.357269 
	C358.567963,502.145691 357.616577,512.742615 353.401459,517.073853 
	C351.543732,518.982788 340.431580,520.393738 338.804169,518.671204 
	C338.041107,517.863525 337.852203,516.277954 337.836151,515.039246 
	C337.747955,508.240509 337.793823,501.440033 337.794006,494.156738 
z"/>
<path fill="#060606" opacity="1.000000" stroke="none" 
	d="
M565.386230,531.188660 
	C564.264954,530.401001 562.890320,529.439636 563.040955,528.923767 
	C565.196289,521.544434 567.557556,514.225220 569.869141,506.891541 
	C570.643860,506.855560 571.418640,506.819611 572.193359,506.783630 
	C574.772095,514.528015 577.350830,522.272400 580.330994,531.222168 
	C574.639526,531.222168 570.240845,531.222168 565.386230,531.188660 
z"/>
<path fill="#181818" opacity="1.000000" stroke="none" 
	d="
M558.321960,612.807922 
	C559.135986,616.978577 556.543823,618.041748 553.289062,618.718018 
	C552.627625,614.810181 553.048706,611.957336 558.321960,612.807922 
z"/>
<path fill="#060606" opacity="1.000000" stroke="none" 
	d="
M531.179688,625.543579 
	C530.904114,616.657593 531.529541,614.327698 535.219299,611.147522 
	C537.015625,616.448730 536.533508,621.342896 534.599365,626.134644 
	C534.462341,626.474060 532.428528,626.047852 531.179688,625.543579 
z"/>
<path fill="#181818" opacity="1.000000" stroke="none" 
	d="
M590.323608,627.086670 
	C588.284546,621.242126 589.175598,616.096741 592.419556,610.926819 
	C596.214233,616.468323 595.054443,625.072388 590.323608,627.086670 
z"/>
<path fill="#181818" opacity="1.000000" stroke="none" 
	d="
M666.503052,618.626709 
	C667.291992,615.847778 668.003357,613.473022 668.921448,610.408386 
	C672.966980,615.790894 672.275391,623.639343 666.874512,628.735657 
	C666.688354,624.712646 666.556885,621.871704 666.503052,618.626709 
z"/>
<path fill="#181818" opacity="1.000000" stroke="none" 
	d="
M616.774048,614.986450 
	C615.330994,616.957947 613.822327,618.528320 612.313721,620.098755 
	C611.956665,619.795227 611.599670,619.491699 611.242676,619.188232 
	C611.242676,617.420105 611.242676,615.651978 611.242676,612.501099 
	C613.449585,613.342651 615.078979,613.964050 616.774048,614.986450 
z"/>
</svg>